<svg width="177" height="147" viewBox="0 0 177 147" fill="none" xmlns="http://www.w3.org/2000/svg">
<path d="M164.957 26.2379H164.657V15.8065C164.654 14.5863 164.102 13.4088 163.103 12.4929C162.105 11.5771 160.729 10.9855 159.23 10.8282C158.047 10.7043 156.617 10.5727 155.008 10.4557V9.4627C155.011 8.64587 154.654 7.85475 154.002 7.23035C153.35 6.60595 152.445 6.18886 151.447 6.05341C147.262 5.48925 143.024 5.21985 138.781 5.24827V4.1777C138.78 3.3285 138.361 2.51429 137.618 1.91381C136.874 1.31333 135.866 0.975634 134.814 0.974854H128.156C125.462 0.977312 122.879 1.84253 120.975 3.38068C119.07 4.91883 117.998 7.0043 117.995 9.17958V9.44796C116.031 10.4643 114.285 11.7312 112.823 13.1994C112.588 13.4419 112.288 13.6381 111.945 13.773C111.602 13.9079 111.225 13.978 110.844 13.978C110.462 13.978 110.086 13.9079 109.743 13.773C109.4 13.6381 109.099 13.4419 108.864 13.1994C98.824 3.0452 76.7638 5.16274 70.2407 6.05341C69.2431 6.18886 68.3376 6.60595 67.6854 7.23035C67.0332 7.85475 66.6768 8.64587 66.6797 9.4627V10.4554C65.0709 10.5734 63.6416 10.705 62.4576 10.8282C60.9594 10.986 59.5832 11.5778 58.5849 12.4935C57.5866 13.4092 57.0341 14.5865 57.0302 15.8065V26.2379H12.0443C8.99096 26.2402 6.06355 27.2207 3.90454 28.964C1.74553 30.7074 0.531322 33.0712 0.528421 35.5367V99.4455C0.528421 99.4486 0.527252 99.4516 0.527252 99.4548C0.527252 99.4579 0.528384 99.4609 0.528421 99.4641V111.618C0.531322 114.083 1.74553 116.447 3.90454 118.19C6.06355 119.934 8.99096 120.914 12.0443 120.917H74.6899L70.9337 143.076H62.0282C61.5439 143.076 61.0794 143.231 60.7369 143.508C60.3945 143.784 60.2021 144.16 60.2021 144.551C60.2021 144.942 60.3945 145.317 60.7369 145.593C61.0794 145.87 61.5439 146.025 62.0282 146.025H115.672C116.156 146.025 116.621 145.87 116.963 145.593C117.306 145.317 117.498 144.942 117.498 144.551C117.498 144.16 117.306 143.784 116.963 143.508C116.621 143.231 116.156 143.076 115.672 143.076H106.767L103.011 120.917H164.957C168.01 120.914 170.937 119.933 173.096 118.19C175.255 116.447 176.469 114.083 176.473 111.618V35.5368C176.469 33.0714 175.255 30.7079 173.096 28.9646C170.937 27.2213 168.01 26.2407 164.957 26.2379ZM74.6201 143.076L78.3761 120.918H99.3244L103.08 143.076H74.6201ZM164.957 29.1871C167.042 29.1892 169.04 29.8588 170.514 31.0491C171.989 32.2395 172.818 33.8533 172.82 35.5367V39.0522H164.657V29.1871H164.957ZM70.332 9.4627C70.3308 9.34305 70.3823 9.22695 70.4773 9.13512C70.5723 9.04329 70.7046 8.9817 70.8507 8.96134C76.8734 8.1385 97.2169 6.14483 106.008 15.0397C106.782 15.8241 107.831 16.402 109.017 16.6981V49.12C109.009 49.4943 109.173 49.8577 109.478 50.1403C109.782 50.4229 110.204 50.6048 110.664 50.651C110.918 50.6711 111.174 50.6481 111.416 50.5835C111.658 50.519 111.881 50.4142 112.07 50.2759C112.259 50.1377 112.41 49.969 112.513 49.7808C112.616 49.5927 112.67 49.3891 112.67 49.1833V16.6978C113.856 16.4017 114.905 15.824 115.68 15.0397C116.374 14.3388 117.149 13.693 117.995 13.1109V20.7258C117.996 21.2822 118.218 21.8237 118.629 22.2703C119.04 22.7169 119.618 23.045 120.277 23.206C120.937 23.367 121.643 23.3524 122.292 23.1644C122.94 22.9765 123.497 22.625 123.879 22.1621L125.402 20.307L126.929 22.1621C127.219 22.5181 127.614 22.8103 128.079 23.0126C128.544 23.2149 129.063 23.3209 129.591 23.3211C129.91 23.3202 130.226 23.2815 130.53 23.2061C131.191 23.0476 131.771 22.7202 132.182 22.2729C132.593 21.8256 132.813 21.2827 132.809 20.7258V14.9542C132.809 14.7487 132.756 14.5455 132.653 14.3576C132.551 14.1697 132.4 14.0012 132.212 13.8629C132.024 13.7247 131.802 13.6197 131.561 13.5548C131.319 13.4899 131.064 13.4664 130.81 13.4859C130.349 13.5305 129.925 13.7114 129.62 13.9939C129.314 14.2764 129.149 14.6403 129.157 15.0153V19.5432L126.925 16.8269C126.758 16.6246 126.532 16.4588 126.267 16.344C126.001 16.2293 125.705 16.1693 125.404 16.1693C125.103 16.1693 124.807 16.2293 124.541 16.344C124.276 16.4588 124.05 16.6246 123.883 16.8269L121.647 19.5432V9.17961C121.647 9.01607 121.66 8.85487 121.678 8.69508C121.682 8.66056 121.686 8.62615 121.691 8.59186C121.871 7.30862 122.629 6.12372 123.822 5.26293C125.014 4.40214 126.557 3.92563 128.156 3.92419H134.814C134.897 3.92419 134.977 3.95091 135.036 3.99848C135.095 4.04604 135.128 4.11056 135.128 4.17782V5.36931C134.409 5.4106 133.686 5.46368 132.959 5.52856C132.17 5.59955 131.376 5.68679 130.583 5.79104C130.227 5.83788 129.903 5.98544 129.669 6.20735C129.435 6.42926 129.307 6.71107 129.306 7.00244V9.87949C129.299 10.2545 129.464 10.6184 129.769 10.9008C130.075 11.1833 130.499 11.3643 130.96 11.4088C131.213 11.4284 131.469 11.4049 131.71 11.34C131.952 11.2751 132.174 11.1701 132.362 11.0318C132.55 10.8936 132.7 10.7251 132.803 10.5371C132.906 10.3492 132.959 10.146 132.959 9.94057V8.46891C133.686 8.39812 134.409 8.34209 135.128 8.3008C135.633 8.27069 139.164 8.17693 139.354 8.17693C143.202 8.18634 147.042 8.44871 150.837 8.96142C150.983 8.98178 151.115 9.04337 151.21 9.13521C151.305 9.22704 151.357 9.34314 151.356 9.46279V51.1352C151.356 51.2054 151.338 51.2748 151.303 51.3388C151.268 51.4029 151.216 51.4602 151.151 51.5068C151.086 51.5556 151.01 51.5926 150.926 51.6155C150.842 51.6384 150.753 51.6466 150.665 51.6396C129.012 50.0782 117.62 55.4039 112.67 58.8145V55.1026C112.677 54.7283 112.513 54.3649 112.209 54.0822C111.905 53.7996 111.482 53.6178 111.022 53.5716C110.769 53.5515 110.513 53.5744 110.271 53.639C110.028 53.7036 109.806 53.8084 109.617 53.9467C109.428 54.0849 109.277 54.2535 109.174 54.4417C109.071 54.6299 109.017 54.8335 109.017 55.0393V58.8135C104.674 55.8219 95.377 51.3594 78.5498 51.3594C76.1904 51.3594 73.6849 51.4479 71.0223 51.6396C70.9352 51.646 70.8474 51.6378 70.7644 51.6154C70.6815 51.593 70.6051 51.557 70.5403 51.5096C70.4754 51.4622 70.4234 51.4045 70.3876 51.3401C70.3517 51.2756 70.3328 51.2059 70.332 51.1353V9.4627ZM60.6825 15.8065C60.685 15.3027 60.9136 14.8168 61.326 14.4388C61.7384 14.0608 62.3065 13.8164 62.9251 13.7509C63.941 13.645 65.2157 13.5267 66.6797 13.4179V51.1352C66.6803 51.6153 66.8047 52.09 67.0449 52.5292C67.2851 52.9683 67.6359 53.3623 68.0749 53.6861C68.514 54.0098 69.0317 54.2562 69.5951 54.4095C70.1585 54.5629 70.7552 54.6199 71.3474 54.5769C91.921 53.0964 102.392 58.0717 106.808 61.1684C107.93 61.9503 109.362 62.3806 110.844 62.3806C112.326 62.3806 113.758 61.9503 114.88 61.1684C119.292 58.0717 129.77 53.0964 150.34 54.5769C150.932 54.6199 151.529 54.5629 152.093 54.4095C152.656 54.2562 153.174 54.0098 153.613 53.6861C154.052 53.3623 154.403 52.9683 154.643 52.5292C154.883 52.09 155.007 51.6153 155.008 51.1352V13.4185C156.471 13.5266 157.745 13.6446 158.763 13.751C159.381 13.8165 159.949 14.061 160.362 14.439C160.774 14.817 161.003 15.3029 161.005 15.8066V57.134C161.005 57.4171 160.933 57.6971 160.793 57.9568C160.654 58.2165 160.45 58.4504 160.195 58.6441C159.939 58.8378 159.637 58.9871 159.307 59.083C158.977 59.1788 158.627 59.2192 158.277 59.2014C135.559 58.0041 122.674 62.6196 115.866 66.7043C114.41 67.5679 112.65 68.0336 110.844 68.0336C109.037 68.0336 107.278 67.5679 105.822 66.7043C99.759 63.0679 88.875 59.0097 70.5146 59.0097C68.2611 59.0097 65.8944 59.0687 63.4108 59.2014C63.061 59.2192 62.7104 59.1788 62.3806 59.083C62.0507 58.9871 61.7487 58.8378 61.4931 58.6441C61.2375 58.4504 61.0337 58.2165 60.8943 57.9568C60.7549 57.6971 60.6828 57.4171 60.6825 57.134V15.8065ZM12.0443 29.1871H57.0302V39.0522H4.18077V35.5367C4.1827 33.8532 5.01179 32.239 6.48607 31.0486C7.96034 29.8581 9.95933 29.1886 12.0443 29.1871ZM164.957 117.967H12.0443C9.95914 117.966 7.95981 117.297 6.4854 116.106C5.011 114.916 4.1821 113.301 4.18077 111.618V100.929H146.568C147.053 100.929 147.517 100.774 147.86 100.497C148.202 100.221 148.395 99.8459 148.395 99.4548C148.395 99.0637 148.202 98.6886 147.86 98.4121C147.517 98.1355 147.053 97.9802 146.568 97.9802H4.18077V42.0015H57.0302V53.146H43.4995C43.0152 53.146 42.5507 53.3014 42.2082 53.5779C41.8657 53.8544 41.6733 54.2295 41.6733 54.6206C41.6733 55.0117 41.8657 55.3868 42.2082 55.6633C42.5507 55.9399 43.0152 56.0952 43.4995 56.0952H57.0303V57.1339C57.0326 57.8539 57.2267 58.5651 57.5995 59.2193H43.4995C43.0152 59.2193 42.5507 59.3746 42.2082 59.6512C41.8657 59.9277 41.6733 60.3028 41.6733 60.6939C41.6733 61.085 41.8657 61.46 42.2082 61.7366C42.5507 62.0131 43.0152 62.1685 43.4995 62.1685H63.5286C63.661 62.1679 63.7929 62.1557 63.9221 62.1321C85.3592 61.0446 97.3537 65.2988 103.645 69.0723C105.723 70.3282 108.249 71.007 110.844 71.007C113.439 71.007 115.965 70.3282 118.043 69.0723C124.361 65.2826 136.429 61.0062 158.04 62.1446C158.888 62.1881 159.738 62.0909 160.538 61.8588C161.338 61.6267 162.071 61.2648 162.691 60.7953C163.311 60.3258 163.806 59.7587 164.144 59.129C164.482 58.4993 164.657 57.8203 164.658 57.1339V42.0014H172.821V97.9802H154.744C154.26 97.9802 153.796 98.1355 153.453 98.4121C153.111 98.6886 152.918 99.0637 152.918 99.4548C152.918 99.8459 153.111 100.221 153.453 100.497C153.796 100.774 154.26 100.929 154.744 100.929H172.82V111.618C172.819 113.301 171.989 114.915 170.515 116.106C169.041 117.296 167.042 117.966 164.957 117.967V117.967Z" fill="black"/>
<path d="M88.4992 104.531C87.2911 104.531 86.1102 104.82 85.1058 105.362C84.1013 105.904 83.3185 106.674 82.8562 107.576C82.3939 108.477 82.273 109.469 82.5087 110.425C82.7444 111.382 83.3261 112.261 84.1804 112.951C85.0346 113.641 86.1229 114.11 87.3078 114.301C88.4926 114.491 89.7208 114.393 90.8369 114.02C91.953 113.647 92.9069 113.014 93.5781 112.203C94.2492 111.392 94.6074 110.439 94.6074 109.463C94.6056 108.155 93.9614 106.902 92.8163 105.977C91.6712 105.052 90.1186 104.532 88.4992 104.531ZM88.4992 111.446C88.0135 111.446 87.5387 111.33 87.1349 111.112C86.7311 110.894 86.4164 110.584 86.2305 110.222C86.0447 109.859 85.9961 109.461 86.0908 109.076C86.1856 108.691 86.4195 108.338 86.7629 108.061C87.1064 107.784 87.544 107.595 88.0203 107.518C88.4967 107.442 88.9904 107.481 89.4391 107.631C89.8879 107.781 90.2714 108.035 90.5412 108.361C90.8111 108.687 90.9551 109.071 90.9551 109.463C90.9544 109.989 90.6954 110.493 90.235 110.865C89.7746 111.236 89.1503 111.445 88.4992 111.446Z" fill="black"/>
<path d="M121.861 32.5018C122.281 32.5021 122.688 32.3858 123.014 32.1724C123.284 31.9961 129.758 27.8878 141.919 30.4697C142.151 30.5189 142.392 30.5308 142.63 30.5046C142.868 30.4784 143.097 30.4147 143.304 30.3171C143.511 30.2195 143.692 30.0899 143.837 29.9357C143.982 29.7815 144.088 29.6058 144.149 29.4185C144.21 29.2312 144.225 29.036 144.193 28.8441C144.16 28.6522 144.081 28.4674 143.96 28.3001C143.84 28.1329 143.679 27.9865 143.488 27.8693C143.297 27.7522 143.079 27.6665 142.848 27.6173C128.77 24.6301 121.014 29.6803 120.691 29.8967C120.403 30.0906 120.195 30.3516 120.098 30.6441C120 30.9365 120.016 31.2462 120.144 31.531C120.272 31.8158 120.505 32.0618 120.813 32.2355C121.12 32.4092 121.486 32.5022 121.861 32.5018H121.861Z" fill="black"/>
<path d="M121.858 39.5771C122.283 39.5774 122.695 39.4572 123.023 39.2376C123.088 39.1941 129.636 34.9331 141.919 37.5406C142.387 37.6401 142.885 37.5852 143.304 37.388C143.722 37.1909 144.026 36.8676 144.149 36.4894C144.272 36.1111 144.204 35.7088 143.96 35.3711C143.716 35.0333 143.316 34.7876 142.847 34.6882C128.768 31.6999 121.014 36.751 120.691 36.9675C120.401 37.1612 120.193 37.4222 120.095 37.715C119.996 38.0078 120.011 38.318 120.139 38.6034C120.267 38.8888 120.5 39.1354 120.808 39.3097C121.115 39.484 121.482 39.5774 121.858 39.5771Z" fill="black"/>
<path d="M142.847 41.7589C128.769 38.7714 121.014 43.8219 120.691 44.0384C120.317 44.2871 120.081 44.6456 120.035 45.0349C119.988 45.4242 120.135 45.8125 120.443 46.1143C120.751 46.416 121.195 46.6066 121.678 46.6441C122.16 46.6816 122.64 46.5628 123.014 46.3141C123.284 46.1378 129.758 42.0296 141.919 44.6114C142.387 44.7108 142.885 44.6559 143.304 44.4588C143.722 44.2616 144.026 43.9384 144.149 43.5601C144.272 43.1819 144.204 42.7796 143.96 42.4418C143.716 42.104 143.316 41.8584 142.847 41.7589H142.847Z" fill="black"/>
<path d="M77.2104 29.4183C77.2712 29.6057 77.3771 29.7816 77.5222 29.9359C77.6673 30.0901 77.8486 30.2198 78.0557 30.3175C78.2629 30.4151 78.4919 30.4788 78.7296 30.5049C78.9673 30.5311 79.2091 30.5191 79.441 30.4697C91.5876 27.8909 98.0613 31.9871 98.3444 32.1718C98.7181 32.4207 99.1988 32.5395 99.6809 32.5021C100.163 32.4648 100.607 32.2743 100.915 31.9726C101.223 31.6709 101.371 31.2827 101.324 30.8934C101.278 30.5041 101.042 30.1456 100.669 29.8967C100.345 29.6801 92.5902 24.6296 78.5122 27.6173C78.0438 27.7167 77.6436 27.9624 77.3995 28.3001C77.1553 28.6379 77.0873 29.0401 77.2104 29.4183Z" fill="black"/>
<path d="M78.5122 34.6883C78.0438 34.7878 77.6435 35.0334 77.3993 35.3712C77.1552 35.709 77.0872 36.1113 77.2104 36.4895C77.3335 36.8678 77.6377 37.1911 78.0561 37.3882C78.4744 37.5854 78.9726 37.6402 79.441 37.5408C91.5876 34.9621 98.0613 39.058 98.3444 39.2428C98.5294 39.366 98.7427 39.4586 98.972 39.5153C99.2013 39.572 99.4422 39.5916 99.6809 39.5731C99.9197 39.5546 100.152 39.4983 100.363 39.4075C100.575 39.3166 100.763 39.1929 100.915 39.0436C101.068 38.8942 101.183 38.722 101.253 38.5368C101.323 38.3516 101.347 38.1571 101.324 37.9644C101.301 37.7716 101.232 37.5844 101.119 37.4133C101.007 37.2423 100.854 37.0909 100.669 36.9677C100.345 36.7513 92.5916 31.6999 78.5122 34.6883Z" fill="black"/>
<path d="M78.5122 41.759C78.0438 41.8585 77.6435 42.1041 77.3993 42.4419C77.1552 42.7797 77.0872 43.182 77.2104 43.5602C77.3335 43.9385 77.6377 44.2617 78.0561 44.4589C78.4744 44.656 78.9726 44.7109 79.441 44.6115C91.5876 42.0325 98.0613 46.1288 98.3444 46.3136C98.7181 46.5625 99.1988 46.6813 99.681 46.6439C100.163 46.6065 100.607 46.4161 100.915 46.1144C101.223 45.8127 101.371 45.4244 101.324 45.0351C101.278 44.6458 101.042 44.2873 100.669 44.0385C100.345 43.8219 92.5902 38.7715 78.5122 41.759Z" fill="black"/>
<path d="M24.9359 66.8315C27.2576 66.8315 29.5271 66.2756 31.4575 65.234C33.3879 64.1925 34.8925 62.7121 35.781 60.9801C36.6695 59.2481 36.9019 57.3422 36.449 55.5035C35.996 53.6648 34.878 51.9758 33.2364 50.6502C31.5947 49.3245 29.5031 48.4218 27.226 48.056C24.9489 47.6903 22.5887 47.878 20.4437 48.5954C18.2988 49.3129 16.4654 50.5278 15.1756 52.0866C13.8857 53.6453 13.1973 55.478 13.1973 57.3527C13.2008 59.8658 14.4387 62.2751 16.6393 64.0521C18.84 65.8291 21.8237 66.8287 24.9359 66.8315ZM24.9359 50.8231C26.5352 50.8231 28.0986 51.2061 29.4284 51.9236C30.7582 52.641 31.7946 53.6608 32.4067 54.8539C33.0187 56.0471 33.1788 57.36 32.8668 58.6266C32.5548 59.8932 31.7847 61.0566 30.6538 61.9698C29.5229 62.883 28.082 63.5049 26.5135 63.7568C24.9449 64.0088 23.319 63.8795 21.8414 63.3853C20.3638 62.891 19.1009 62.0541 18.2124 60.9803C17.3239 59.9066 16.8496 58.6441 16.8496 57.3527C16.852 55.6215 17.7047 53.9618 19.2207 52.7377C20.7366 51.5136 22.792 50.825 24.9359 50.823V50.8231Z" fill="black"/>
<path d="M90.8416 78.8385H43.4995C43.0151 78.8385 42.5507 78.9939 42.2082 79.2704C41.8657 79.547 41.6733 79.922 41.6733 80.3131C41.6733 80.7042 41.8657 81.0793 42.2082 81.3558C42.5507 81.6324 43.0151 81.7877 43.4995 81.7877H90.8416C91.3259 81.7877 91.7904 81.6324 92.1329 81.3558C92.4754 81.0793 92.6678 80.7042 92.6678 80.3131C92.6678 79.922 92.4754 79.547 92.1329 79.2704C91.7904 78.9939 91.3259 78.8385 90.8416 78.8385Z" fill="black"/>
<path d="M73.2297 85.4927H43.4995C43.0151 85.4927 42.5507 85.648 42.2082 85.9246C41.8657 86.2011 41.6733 86.5762 41.6733 86.9673C41.6733 87.3584 41.8657 87.7334 42.2082 88.01C42.5507 88.2865 43.0151 88.4419 43.4995 88.4419H73.2299C73.7142 88.4419 74.1787 88.2865 74.5212 88.01C74.8637 87.7334 75.056 87.3584 75.056 86.9673C75.056 86.5762 74.8637 86.2011 74.5212 85.9246C74.1787 85.648 73.7142 85.4927 73.2299 85.4927H73.2297Z" fill="black"/>
<path d="M90.8416 85.4927H81.955C81.4707 85.4927 81.0062 85.648 80.6637 85.9246C80.3212 86.2011 80.1288 86.5762 80.1288 86.9673C80.1288 87.3584 80.3212 87.7334 80.6637 88.01C81.0062 88.2865 81.4707 88.4419 81.955 88.4419H90.8418C91.3261 88.4419 91.7906 88.2865 92.1331 88.01C92.4755 87.7334 92.6679 87.3584 92.6679 86.9673C92.6679 86.5762 92.4755 86.2011 92.1331 85.9246C91.7906 85.648 91.3261 85.4927 90.8418 85.4927H90.8416Z" fill="black"/>
<path d="M35.491 73.1805L32.3622 75.9248C30.0712 74.4106 27.1574 73.6495 24.2022 73.7935C21.2469 73.9375 18.4676 74.9761 16.4188 76.7018C14.37 78.4276 13.2024 80.7137 13.149 83.104C13.0956 85.4942 14.1603 87.8129 16.1306 89.5972C18.101 91.3815 20.8321 92.5003 23.779 92.7304C26.7259 92.9604 29.6718 92.2847 32.0289 90.8381C34.3861 89.3916 35.981 87.2805 36.4956 84.9263C37.0101 82.572 36.4064 80.1476 34.8049 78.1369L38.178 75.1781C38.3405 75.0356 38.4666 74.8687 38.5491 74.6869C38.6317 74.5051 38.6691 74.3119 38.6592 74.1184C38.6493 73.9249 38.5923 73.7349 38.4914 73.5592C38.3906 73.3835 38.2478 73.2255 38.0714 73.0944C37.895 72.9632 37.6883 72.8614 37.4631 72.7947C37.2379 72.728 36.9987 72.6979 36.759 72.7058C36.5194 72.7138 36.2841 72.7599 36.0665 72.8413C35.8489 72.9227 35.6533 73.038 35.4909 73.1805L35.491 73.1805ZM33.0222 83.2595C33.0252 84.7377 32.4081 86.1731 31.2713 87.3317C30.1346 88.4903 28.5453 89.3038 26.7626 89.6396C24.9799 89.9754 23.1088 89.8136 21.4546 89.1807C19.8003 88.5478 18.4603 87.4811 17.6531 86.1544C16.8458 84.8277 16.6189 83.3194 17.0094 81.8752C17.3999 80.4311 18.3846 79.1363 19.8032 78.202C21.2217 77.2677 22.9904 76.749 24.8208 76.7304C26.6512 76.7119 28.4355 77.1945 29.8826 78.0997L25.2022 82.205L22.9503 80.333C22.7835 80.193 22.5841 80.0811 22.3636 80.0036C22.143 79.926 21.9057 79.8844 21.6652 79.8812C21.4248 79.8779 21.1858 79.9131 20.9622 79.9846C20.7386 80.0561 20.5347 80.1625 20.3621 80.2979C20.1896 80.4332 20.0519 80.5947 19.9569 80.7731C19.8619 80.9515 19.8115 81.1434 19.8085 81.3376C19.8056 81.5318 19.8502 81.7245 19.9398 81.9048C20.0294 82.085 20.1621 82.2492 20.3305 82.3879L23.9281 85.3784C24.0983 85.5199 24.3019 85.6323 24.5269 85.7091C24.7519 85.7859 24.9937 85.8255 25.238 85.8255C25.246 85.8255 25.2542 85.8255 25.2624 85.8255C25.5108 85.8228 25.7559 85.7793 25.9827 85.6975C26.2095 85.6157 26.4133 85.4974 26.5815 85.3499L32.2115 80.4118C32.7463 81.2989 33.0236 82.2728 33.0222 83.2595Z" fill="black"/>
<path d="M115.699 79.3985H112.84L111.957 77.2032C111.782 76.7684 111.441 76.3894 110.983 76.1207C110.525 75.852 109.973 75.7073 109.407 75.7073C108.841 75.7073 108.289 75.852 107.831 76.1207C107.373 76.3894 107.032 76.7684 106.857 77.2032L105.974 79.3985H103.115C102.549 79.3985 101.997 79.5433 101.539 79.812C101.081 80.0807 100.741 80.4596 100.566 80.8943C100.391 81.3291 100.39 81.7974 100.565 82.2322C100.74 82.667 101.081 83.0459 101.539 83.3147L103.852 84.6715L102.968 86.8671C102.794 87.3019 102.794 87.7703 102.969 88.2051C103.144 88.6399 103.485 89.0188 103.943 89.2875C104.401 89.5562 104.952 89.7009 105.519 89.7009C106.085 89.7009 106.636 89.5561 107.094 89.2873L109.407 87.9305L111.72 89.2872C112.178 89.5559 112.729 89.7007 113.296 89.7008C113.862 89.7008 114.413 89.5561 114.871 89.2874C115.33 89.0187 115.67 88.6398 115.845 88.205C116.02 87.7702 116.02 87.3018 115.845 86.867L114.962 84.6715L117.275 83.3147C117.733 83.046 118.073 82.6671 118.248 82.2323C118.423 81.7976 118.423 81.3292 118.248 80.8945C118.073 80.4597 117.733 80.0808 117.275 79.8121C116.817 79.5433 116.265 79.3986 115.699 79.3985ZM113.102 82.8461C112.644 83.1144 112.302 83.4932 112.127 83.9281C111.952 84.363 111.953 84.8315 112.129 85.2661L112.837 87.0266L110.983 85.9386C110.525 85.6691 109.973 85.5239 109.407 85.5239C108.84 85.5239 108.289 85.6691 107.831 85.9386L105.977 87.0267L106.685 85.266C106.861 84.8314 106.862 84.3628 106.687 83.9278C106.512 83.4928 106.17 83.1139 105.711 82.8457L103.856 81.7579H106.149C106.715 81.7587 107.268 81.6143 107.726 81.3454C108.184 81.0766 108.525 80.6972 108.699 80.262L109.407 78.5013L110.115 80.262C110.289 80.6972 110.63 81.0766 111.088 81.3454C111.547 81.6142 112.099 81.7587 112.665 81.7579H114.958L113.102 82.8461Z" fill="black"/>
<path d="M138.177 79.3985H135.318L134.435 77.2032C134.26 76.7683 133.919 76.3894 133.461 76.1207C133.003 75.852 132.451 75.7073 131.885 75.7073C131.318 75.7073 130.767 75.852 130.309 76.1207C129.851 76.3894 129.51 76.7683 129.335 77.2032L128.451 79.3985H125.593C125.027 79.3985 124.475 79.5432 124.017 79.8119C123.559 80.0806 123.218 80.4595 123.043 80.8943C122.868 81.329 122.868 81.7974 123.043 82.2322C123.218 82.667 123.559 83.0459 124.017 83.3147L126.33 84.6718L125.446 86.8671C125.27 87.302 125.27 87.7706 125.445 88.2057C125.619 88.6408 125.96 89.0201 126.419 89.2889C126.877 89.5578 127.429 89.7025 127.995 89.7023C128.562 89.702 129.114 89.5568 129.571 89.2876L131.884 87.9306L134.197 89.2874C134.655 89.5562 135.207 89.7009 135.773 89.701C136.339 89.701 136.891 89.5563 137.349 89.2876C137.807 89.0189 138.148 88.64 138.323 88.2052C138.498 87.7703 138.498 87.302 138.323 86.8671L137.44 84.6716L139.752 83.3148C140.21 83.0461 140.551 82.6672 140.726 82.2324C140.901 81.7976 140.901 81.3292 140.726 80.8944C140.551 80.4596 140.211 80.0807 139.752 79.8119C139.294 79.5432 138.743 79.3985 138.177 79.3985ZM135.581 82.8461C135.122 83.1142 134.78 83.4931 134.605 83.9281C134.43 84.363 134.431 84.8316 134.607 85.2664L135.315 87.027L133.46 85.9388C133.003 85.6694 132.451 85.5242 131.885 85.5242C131.318 85.5242 130.767 85.6694 130.309 85.9388L128.454 87.0268L129.162 85.2664C129.338 84.8317 129.339 84.3631 129.164 83.9281C128.989 83.4931 128.647 83.1143 128.189 82.8462L126.334 81.7578H128.627C129.193 81.7586 129.745 81.6142 130.203 81.3454C130.662 81.0766 131.002 80.6972 131.176 80.2619L131.884 78.5013L132.593 80.2619C132.767 80.6972 133.108 81.0765 133.566 81.3453C134.024 81.6142 134.576 81.7586 135.143 81.7578H137.435L135.581 82.8461Z" fill="black"/>
<path d="M156.675 89.2872C157.133 89.556 157.684 89.7007 158.251 89.7008C158.817 89.7008 159.368 89.5561 159.827 89.2874C160.285 89.0187 160.626 88.6398 160.801 88.2049C160.976 87.7701 160.976 87.3017 160.801 86.8669L159.917 84.6714L162.23 83.3144C162.688 83.0457 163.029 82.6667 163.204 82.232C163.379 81.7972 163.379 81.3289 163.204 80.8942C163.029 80.4595 162.688 80.0806 162.23 79.812C161.772 79.5433 161.22 79.3985 160.654 79.3985H157.795L156.912 77.203C156.737 76.7682 156.396 76.3893 155.938 76.1206C155.48 75.8519 154.928 75.7072 154.362 75.7072C153.796 75.7072 153.244 75.8519 152.786 76.1206C152.328 76.3893 151.987 76.7682 151.812 77.203L150.929 79.3985H148.07C147.504 79.3985 146.953 79.5432 146.495 79.8119C146.037 80.0806 145.696 80.4595 145.521 80.8943C145.346 81.329 145.346 81.7974 145.521 82.2322C145.695 82.667 146.036 83.0459 146.494 83.3147L148.807 84.6718L147.924 86.867C147.748 87.3019 147.747 87.7705 147.922 88.2056C148.097 88.6408 148.438 89.02 148.896 89.2888C149.354 89.5577 149.906 89.7024 150.473 89.7022C151.039 89.7019 151.591 89.5567 152.049 89.2875L154.362 87.9305L156.675 89.2872ZM150.932 87.0265L151.64 85.2661C151.816 84.8314 151.817 84.3628 151.642 83.9278C151.467 83.4929 151.125 83.114 150.666 82.8459L148.812 81.7578H151.104C151.67 81.7587 152.223 81.6143 152.681 81.3454C153.139 81.0766 153.48 80.6972 153.654 80.2619L154.362 78.5016L155.071 80.2621C155.245 80.6973 155.585 81.0766 156.044 81.3454C156.502 81.6142 157.054 81.7586 157.62 81.7578H159.913L158.058 82.8461C157.599 83.1142 157.258 83.4931 157.083 83.9281C156.908 84.363 156.908 84.8317 157.084 85.2664L157.793 87.0271L155.938 85.9388C155.48 85.6694 154.929 85.5242 154.362 85.5242C153.796 85.5242 153.244 85.6694 152.787 85.9388L150.932 87.0265Z" fill="black"/>
</svg>
