<svg width="181" height="179" viewBox="0 0 181 179" fill="none" xmlns="http://www.w3.org/2000/svg">
<path d="M110.297 95.0938V87.2978C110.297 85.2146 111.489 83.2167 113.61 81.7437C115.732 80.2706 118.609 79.443 121.609 79.443H134.732C135.405 79.4437 136.077 79.4042 136.74 79.3252L166.859 75.5156C163.459 77.8768 161.073 80.849 159.969 84.0989C158.865 87.3489 159.087 90.7481 160.609 93.9155L161.175 95.0741L110.297 95.0938Z" fill="black"/>
<path d="M98.9844 170.609H172.516V148.234C172.516 146.751 171.92 145.328 170.859 144.279C169.798 143.23 168.36 142.641 166.859 142.641L149.891 137.047L135.75 159.422L121.609 137.047L104.641 142.641C103.14 142.641 101.702 143.23 100.641 144.279C99.5803 145.328 98.9844 146.751 98.9844 148.234V170.609Z" fill="black"/>
<path d="M65.0469 72.7188C66.6088 72.7188 67.875 71.4665 67.875 69.9219C67.875 68.3772 66.6088 67.125 65.0469 67.125C63.4849 67.125 62.2188 68.3772 62.2188 69.9219C62.2188 71.4665 63.4849 72.7188 65.0469 72.7188Z" fill="black"/>
<path d="M167.363 139.858L153.98 135.447C158.641 130.542 161.226 124.057 161.203 117.326V116.563C162.65 116.022 163.927 115.112 164.903 113.925C165.88 112.738 166.521 111.317 166.763 109.806C167.004 108.295 166.837 106.748 166.279 105.321C165.72 103.894 164.789 102.639 163.582 101.683L163.299 100.844C161.927 96.8276 161.722 92.5111 162.706 88.3849C163.69 84.2586 165.825 80.4881 168.867 77.5015C169.294 77.08 169.572 76.5348 169.663 75.9455C169.754 75.3563 169.652 74.7537 169.373 74.2256C169.093 73.6976 168.65 73.2718 168.108 73.0103C167.567 72.7488 166.955 72.6653 166.362 72.7719L136.256 78.1867C135.753 78.271 135.243 78.3132 134.732 78.3126H121.609C117.86 78.317 114.266 79.7918 111.615 82.4134C108.964 85.035 107.473 88.5894 107.469 92.2969V102.036C106.369 103.041 105.548 104.307 105.081 105.714C104.614 107.121 104.517 108.622 104.8 110.076C105.083 111.531 105.737 112.889 106.698 114.024C107.66 115.159 108.899 116.033 110.297 116.563V117.326C110.274 124.057 112.859 130.542 117.52 135.447L104.137 139.858C101.978 139.985 99.949 140.923 98.4656 142.48C96.9821 144.037 96.156 146.095 96.1563 148.234V170.609C96.1563 171.351 96.4542 172.063 96.9846 172.587C97.515 173.112 98.2343 173.406 98.9844 173.406H172.516C173.266 173.406 173.985 173.112 174.515 172.587C175.046 172.063 175.344 171.351 175.344 170.609V148.234C175.344 146.095 174.518 144.037 173.034 142.48C171.551 140.923 169.522 139.985 167.363 139.858ZM113.125 92.2969C113.125 90.0716 114.019 87.9374 115.61 86.3639C117.201 84.7903 119.359 83.9063 121.609 83.9063H134.732C135.575 83.9071 136.416 83.836 137.246 83.6937L160.196 79.56C157.872 83.5878 156.594 88.1224 156.474 92.7584C155.41 91.3861 153.937 90.3783 152.263 89.8766C150.589 89.375 148.798 89.4047 147.142 89.9615L136.615 93.5695C136.056 93.7596 135.449 93.7596 134.89 93.5695L124.364 89.9615C122.404 89.3054 120.268 89.3858 118.364 90.1874C116.46 90.9891 114.922 92.4558 114.041 94.3079L113.125 96.1762V92.2969ZM115.953 117.326V114.25C115.953 113.508 115.655 112.796 115.125 112.272C114.594 111.747 113.875 111.453 113.125 111.453C112.355 111.396 111.635 111.053 111.11 110.494C110.585 109.934 110.293 109.199 110.293 108.435C110.293 107.671 110.585 106.936 111.11 106.376C111.635 105.817 112.355 105.474 113.125 105.417C113.657 105.417 114.178 105.268 114.628 104.988C115.078 104.708 115.439 104.308 115.67 103.834L119.132 96.716C119.352 96.2383 119.705 95.8323 120.15 95.5451C120.595 95.2579 121.112 95.1014 121.643 95.0938C121.938 95.0944 122.23 95.1435 122.509 95.2392L133.038 98.8444C134.795 99.4458 136.705 99.4458 138.462 98.8444L148.991 95.2392C149.64 95.027 150.345 95.0616 150.969 95.3363C151.593 95.6109 152.091 96.1059 152.365 96.7244L155.83 103.842C156.061 104.316 156.422 104.716 156.872 104.996C157.322 105.276 157.843 105.425 158.375 105.425C159.145 105.482 159.865 105.825 160.39 106.385C160.915 106.944 161.207 107.68 161.207 108.443C161.207 109.207 160.915 109.942 160.39 110.502C159.865 111.062 159.145 111.404 158.375 111.461C157.625 111.461 156.906 111.756 156.375 112.28C155.845 112.805 155.547 113.516 155.547 114.258V117.335C155.594 121.091 154.594 124.788 152.657 128.019C150.72 131.251 147.92 133.892 144.565 135.654L136.977 139.556C136.598 139.751 136.177 139.853 135.75 139.853C135.323 139.853 134.902 139.751 134.523 139.556L126.935 135.648C123.579 133.886 120.78 131.244 118.842 128.012C116.905 124.78 115.906 121.083 115.953 117.326ZM142.925 142.792L135.75 154.144L128.575 142.792L131.918 144.509C133.102 145.117 134.416 145.435 135.75 145.435C137.084 145.435 138.398 145.117 139.582 144.509L142.925 142.792ZM169.688 167.813H101.812V148.234C101.812 147.493 102.11 146.781 102.641 146.257C103.171 145.732 103.891 145.438 104.641 145.438C104.944 145.438 105.246 145.39 105.534 145.295L120.39 140.403L133.352 160.91C133.623 161.291 133.983 161.603 134.401 161.818C134.82 162.032 135.284 162.145 135.756 162.145C136.227 162.145 136.692 162.032 137.11 161.818C137.528 161.603 137.888 161.291 138.16 160.91L151.11 140.403L165.966 145.301C166.254 145.393 166.556 145.44 166.859 145.438C167.609 145.438 168.329 145.732 168.859 146.257C169.39 146.781 169.688 147.493 169.688 148.234V167.813Z" fill="black"/>
<path d="M53.1914 83.1175C56.4572 85.3487 59.505 87.8769 62.2951 90.6691C70.0527 97.7899 73.4945 100.688 76.3594 100.688C76.8885 100.692 77.411 100.571 77.883 100.335C78.355 100.098 78.7626 99.7531 79.0715 99.3282C80.5167 97.3704 79.6852 94.5735 77.6575 88.4959C77.1597 86.9884 76.4244 84.7761 76.0426 83.2406C104.222 79.8116 124.438 63.8555 124.438 44.75C124.438 23.1581 97.7966 5.59375 65.0469 5.59375C32.2972 5.59375 5.65625 23.1581 5.65625 44.75C5.65625 63.3968 25.7359 79.5487 53.1914 83.1175ZM65.0469 11.1875C94.6771 11.1875 118.781 26.2431 118.781 44.75C118.781 61.1509 99.2106 75.4093 73.2484 77.9181C72.7473 77.9655 72.2635 78.1241 71.833 78.3823C71.4026 78.6404 71.0366 78.9913 70.7625 79.4089C69.4446 81.4086 70.327 84.3342 72.284 90.2384C72.5329 90.9907 72.8242 91.8718 73.1014 92.7556C70.8389 90.9124 68.0984 88.3896 66.13 86.5885C59.4415 80.4577 56.4833 77.9181 54.0964 77.6189C29.3079 74.3745 11.3125 60.5551 11.3125 44.75C11.3125 26.2431 35.4166 11.1875 65.0469 11.1875Z" fill="black"/>
<path d="M53.7344 41.9531H65.0469C65.7969 41.9531 66.5163 41.6585 67.0467 41.1339C67.577 40.6094 67.875 39.898 67.875 39.1562V33.5625H62.2188V36.3594H56.5625V25.1719H73.5312V40.7952L63.0474 51.1632C62.517 51.6876 62.2189 52.3989 62.2188 53.1406V61.5312H67.875V54.2985L78.3589 43.9305C78.8893 43.4061 79.1873 42.6948 79.1875 41.9531V22.375C79.1875 21.6332 78.8895 20.9218 78.3592 20.3973C77.8288 19.8728 77.1094 19.5781 76.3594 19.5781H53.7344C52.9843 19.5781 52.265 19.8728 51.7346 20.3973C51.2042 20.9218 50.9062 21.6332 50.9062 22.375V39.1562C50.9062 39.898 51.2042 40.6094 51.7346 41.1339C52.265 41.6585 52.9843 41.9531 53.7344 41.9531Z" fill="black"/>
</svg>
