<svg width="50" height="65" viewBox="0 0 50 65" fill="none" xmlns="http://www.w3.org/2000/svg">
<path d="M13.224 12.664H11.02C10.7217 12.664 10.4823 12.4206 10.4823 12.1216V0.864986C10.4823 0.56407 10.7236 0.322571 11.02 0.322571H13.224V12.664Z" fill="#E1FCDE"/>
<path d="M13.8307 2.26936C14.9933 2.30667 15.9352 3.07919 15.9352 4.01403C15.9352 4.94646 14.9981 5.71741 13.8397 5.7584V7.70939C16.3838 7.70939 18.4776 6.04189 18.4776 4.01406C18.4776 1.98623 16.3838 0.318726 13.8397 0.318726H13.8207L13.8307 2.26936Z" fill="#E1FCDE"/>
<path d="M26.6115 12.6199H24.9452C24.6469 12.6199 24.4075 12.3765 24.4075 12.0775V0.276611H27.1511V12.0775C27.1492 12.3765 26.9079 12.6199 26.6115 12.6199Z" fill="#E1FCDE"/>
<path d="M27.6071 2.13367C28.7647 2.17539 29.7009 2.94603 29.7009 3.87798C29.7009 4.8074 28.7698 5.57637 27.6165 5.62193V7.66532C30.1607 7.66532 32.2545 5.99782 32.2545 3.96999C32.2545 1.94216 30.1607 0.274658 27.6165 0.274658H27.5975L27.6071 2.13367Z" fill="#E1FCDE"/>
<path d="M23.9609 5.71391C22.8076 5.66835 21.8766 4.89938 21.8766 3.96996C21.8766 3.03814 22.8125 2.26759 23.9699 2.22567L23.9799 0.274658H23.9609C21.4168 0.274658 19.323 1.94216 19.323 3.96999C19.323 5.99782 21.4168 7.66532 23.9609 7.66532V5.71391Z" fill="#E1FCDE"/>
<path d="M36.2368 12.62H34.0328C33.7345 12.62 33.4951 12.3766 33.4951 12.0776V0.820981C33.4951 0.520065 33.7364 0.278564 34.0328 0.278564H36.2368V12.62Z" fill="#E1FCDE"/>
<path d="M36.7945 10.3048C38.9365 10.3225 40.6977 11.3537 40.768 12.6199H41.4409C41.4409 9.36732 39.3471 6.69165 36.8012 6.69165H36.7841L36.7945 10.3048Z" fill="#E1FCDE"/>
<path d="M36.7945 2.83506C38.9365 2.81734 40.6977 1.78612 40.768 0.519959L41.4409 0.519958C41.4409 3.77254 39.3471 6.44821 36.8012 6.44821H36.7841L36.7945 2.83506Z" fill="#E1FCDE"/>
<path d="M12.4545 15.1217H1.18945V39.0871H12.4545V15.1217Z" fill="#E1FCDE"/>
<path d="M13.528 15.0349H25.3688C25.3688 21.385 20.0241 26.6106 13.528 26.6106C13.5147 26.6106 13.4995 26.6106 13.4862 26.6106L13.528 15.0349Z" fill="#E1FCDE"/>
<path d="M13.5128 39.0563V27.9705C20.0165 27.9705 25.3688 32.9742 25.3688 39.0563C25.3688 39.0698 25.3688 39.0813 25.3688 39.0948L13.5128 39.0563Z" fill="#E1FCDE"/>
<path d="M39.0869 24.8996H37.1774V29.3671H39.0869V24.8996Z" fill="#E1FCDE"/>
<path d="M12.4831 39.7989H0.796143V64.7867H12.4831V39.7989Z" fill="#E1FCDE"/>
<path d="M25.5208 39.7989H11.9377V47.7926H25.5208V39.7989Z" fill="#E1FCDE"/>
<path d="M25.5208 48.7937H11.3639V56.1488H25.5208V48.7937Z" fill="#E1FCDE"/>
<path d="M25.5208 57.1268H11.3639V64.7346H25.5208V57.1268Z" fill="#E1FCDE"/>
<path d="M43.3809 49.1737H32.7371V64.4453H43.3809V49.1737Z" fill="#E1FCDE"/>
<path d="M37.5231 55.3926H28.7375C27.531 55.3926 26.5544 54.4011 26.5544 53.1763V40.1307H37.5231V55.3926Z" fill="#E1FCDE"/>
<path d="M38.8722 55.3926H47.7452C48.9517 55.3926 49.9283 54.4011 49.9283 53.1763V40.1596H38.8722V55.3926Z" fill="#E1FCDE"/>
<path d="M49.932 39.1161H40.5327C39.6397 39.1161 38.9177 38.3811 38.9177 37.4765V16.7478C38.9177 15.8412 39.6416 15.1082 40.5327 15.1082H49.932V39.1161Z" fill="#E1FCDE"/>
<path d="M26.5487 39.1161H35.948C36.841 39.1161 37.563 38.3811 37.563 37.4765V16.7478C37.563 15.8412 36.8391 15.1082 35.948 15.1082H26.5487V39.1161Z" fill="#E1FCDE"/>
</svg>
